<svg xmlns="http://www.w3.org/2000/svg" width="34" height="34" viewBox="0 0 34 34">
  <g id="Group_371" data-name="Group 371" transform="translate(-590 207)">
    <path id="Path_78" data-name="Path 78" d="M27.625,7.125A.375.375,0,0,0,28,6.75V5.25a.375.375,0,0,0-.375-.375H.375A.375.375,0,0,0,0,5.25v1.5a.375.375,0,0,0,.375.375Zm0,10A.375.375,0,0,0,28,16.75v-1.5a.375.375,0,0,0-.375-.375H.375A.375.375,0,0,0,0,15.25v1.5a.375.375,0,0,0,.375.375Zm0,10A.375.375,0,0,0,28,26.75v-1.5a.375.375,0,0,0-.375-.375H.375A.375.375,0,0,0,0,25.25v1.5a.375.375,0,0,0,.375.375Z" transform="translate(593 -206)" fill="#fff"/>
    <rect id="Rectangle_697" data-name="Rectangle 697" width="34" height="34" transform="translate(590 -207)" fill="#fff" opacity="0.001"/>
  </g>
</svg>
