<svg xmlns="http://www.w3.org/2000/svg" width="34" height="34" viewBox="0 0 34 34">
  <g id="Group_370" data-name="Group 370" transform="translate(-650 207)">
    <path id="Path_77" data-name="Path 77" d="M21.621,16l6.41-6.41,1.322-1.322a.5.5,0,0,0,0-.707L27.939,6.147a.5.5,0,0,0-.707,0L19.5,13.879,11.768,6.146a.5.5,0,0,0-.707,0L9.646,7.561a.5.5,0,0,0,0,.707L17.379,16,9.646,23.732a.5.5,0,0,0,0,.707l1.414,1.414a.5.5,0,0,0,.707,0L19.5,18.121l6.41,6.41,1.322,1.322a.5.5,0,0,0,.707,0l1.414-1.414a.5.5,0,0,0,0-.707Z" transform="translate(648 -206)" fill="#fff"/>
    <rect id="Rectangle_698" data-name="Rectangle 698" width="34" height="34" transform="translate(650 -207)" fill="#fff" opacity="0.001"/>
  </g>
</svg>
